<svg xmlns="http://www.w3.org/2000/svg" version="1.1" xmlns:xlink="http://www.w3.org/1999/xlink" xmlns:svgjs="http://svgjs.dev/svgjs" width="1000" height="320" viewBox="0 0 1000 320"><g transform="matrix(1,0,0,1,0.10666666666668334,-0.4933333333333394)"><svg viewBox="0 0 375 120" data-background-color="#ffffff" preserveAspectRatio="xMidYMid meet" height="320" width="1000" xmlns="http://www.w3.org/2000/svg" xmlns:xlink="http://www.w3.org/1999/xlink"><g id="tight-bounds" transform="matrix(1,0,0,1,-0.03976000000000113,0.1852999999999838)"><svg viewBox="0 0 375.07953 119.62926000000002" height="119.62926000000002" width="375.07953"><g><svg></svg></g><g><svg viewBox="0 0 375.07953 119.62926000000002" height="119.62926000000002" width="375.07953"><g transform="matrix(1,0,0,1,-10.22024,-65.88929999999999)"><path d="M10.22 181.311v-115.422h375.08v115.422l-18.164 0 0-3.723h14.441v-107.976h-367.634v107.976l20.441 0 0 3.723z" fill="#ff851b" fill-rule="nonzero" stroke="none" stroke-width="1" stroke-linecap="butt" stroke-linejoin="miter" stroke-miterlimit="10" stroke-dasharray="" stroke-dashoffset="0" font-family="none" font-weight="none" font-size="none" text-anchor="none" style="mix-blend-mode: normal" data-fill-palette-color="tertiary"></path><g><path d="M53.778 185.519c-1.556 0-2.96-0.345-4.211-1.036-1.254-0.688-2.236-1.636-2.948-2.846-0.711-1.206-1.067-2.565-1.067-4.077v0c0-1.512 0.356-2.872 1.067-4.082 0.711-1.206 1.697-2.155 2.957-2.846 1.26-0.688 2.668-1.032 4.224-1.031v0c1.215 0 2.327 0.205 3.335 0.614 1.008 0.406 1.867 1.009 2.578 1.809v0l-1.445 1.401c-1.171-1.23-2.631-1.845-4.379-1.845v0c-1.156 0-2.201 0.259-3.135 0.778-0.934 0.519-1.663 1.233-2.187 2.143-0.528 0.913-0.791 1.933-0.792 3.059v0c0 1.126 0.264 2.145 0.792 3.054 0.525 0.913 1.254 1.629 2.187 2.148 0.934 0.519 1.979 0.778 3.135 0.778v0c1.734 0 3.194-0.622 4.379-1.867v0l1.445 1.4c-0.711 0.8-1.574 1.408-2.587 1.823-1.017 0.415-2.133 0.622-3.348 0.623zM80.758 185.474c-1.171 0-2.223-0.259-3.157-0.778-0.934-0.519-1.664-1.235-2.192-2.148-0.525-0.91-0.787-1.943-0.787-3.099v0c0-1.156 0.262-2.191 0.787-3.103 0.528-0.91 1.258-1.621 2.192-2.134 0.934-0.51 1.986-0.765 3.157-0.765v0c1.171 0 2.219 0.255 3.143 0.765 0.928 0.513 1.654 1.224 2.179 2.134 0.528 0.913 0.791 1.947 0.791 3.103v0c0 1.156-0.264 2.189-0.791 3.099-0.525 0.913-1.251 1.629-2.179 2.148-0.925 0.519-1.973 0.778-3.143 0.778zM80.758 183.607c0.756 0 1.433-0.175 2.031-0.525 0.602-0.347 1.073-0.836 1.414-1.467 0.341-0.628 0.511-1.35 0.512-2.166v0c0-0.815-0.17-1.538-0.512-2.169-0.341-0.628-0.812-1.113-1.414-1.454-0.599-0.341-1.276-0.511-2.031-0.512v0c-0.756 0-1.435 0.17-2.037 0.512-0.599 0.341-1.073 0.826-1.423 1.454-0.347 0.631-0.52 1.355-0.52 2.169v0c0 0.815 0.173 1.537 0.52 2.166 0.35 0.631 0.824 1.12 1.423 1.467 0.602 0.35 1.281 0.525 2.037 0.525zM107.444 170.468c-1.275 0-1.912 0.689-1.912 2.067v0 1.023h3.446v1.756h-3.401v10.027h-2.135v-12.828c0-1.171 0.341-2.097 1.023-2.779 0.682-0.682 1.638-1.023 2.868-1.022v0c0.474 0 0.919 0.059 1.334 0.178 0.415 0.119 0.771 0.289 1.067 0.511v0l-0.645 1.623c-0.489-0.371-1.037-0.556-1.645-0.556zM128.599 170.468c-1.275 0-1.912 0.689-1.912 2.067v0 1.023h3.446v1.756h-3.401v10.027h-2.134v-12.828c0-1.171 0.341-2.097 1.022-2.779 0.682-0.682 1.638-1.023 2.868-1.022v0c0.474 0 0.919 0.059 1.334 0.178 0.415 0.119 0.771 0.289 1.067 0.511v0l-0.645 1.623c-0.489-0.371-1.037-0.556-1.645-0.556zM150.888 183.607c1.408 0 2.542-0.474 3.402-1.423v0l1.156 1.378c-0.519 0.622-1.175 1.097-1.97 1.423-0.791 0.326-1.676 0.489-2.654 0.489v0c-1.245 0-2.349-0.256-3.313-0.769-0.963-0.51-1.709-1.224-2.236-2.143-0.525-0.919-0.787-1.956-0.787-3.113v0c0-1.141 0.255-2.171 0.765-3.09 0.513-0.919 1.217-1.635 2.112-2.147 0.898-0.51 1.91-0.765 3.036-0.765v0c1.067 0 2.038 0.24 2.913 0.72 0.874 0.483 1.571 1.162 2.089 2.037 0.519 0.874 0.786 1.882 0.801 3.023v0l-9.36 1.823c0.296 0.815 0.796 1.445 1.499 1.89 0.705 0.445 1.555 0.667 2.547 0.667zM150.399 175.248c-0.741 0-1.405 0.17-1.992 0.511-0.584 0.341-1.039 0.82-1.365 1.436-0.326 0.614-0.489 1.328-0.489 2.143v0 0.223l7.537-1.423c-0.193-0.86-0.622-1.556-1.29-2.09-0.667-0.534-1.467-0.8-2.401-0.8zM178.108 183.607c1.408 0 2.542-0.474 3.402-1.423v0l1.156 1.378c-0.519 0.622-1.174 1.097-1.965 1.423-0.794 0.326-1.681 0.489-2.659 0.489v0c-1.245 0-2.349-0.256-3.313-0.769-0.963-0.51-1.707-1.224-2.232-2.143-0.528-0.919-0.791-1.956-0.791-3.113v0c0-1.141 0.256-2.171 0.769-3.09 0.51-0.919 1.214-1.635 2.112-2.147 0.895-0.51 1.906-0.765 3.032-0.765v0c1.067 0 2.038 0.24 2.913 0.72 0.874 0.483 1.571 1.162 2.089 2.037 0.519 0.874 0.786 1.882 0.801 3.023v0l-9.36 1.823c0.296 0.815 0.797 1.445 1.503 1.89 0.703 0.445 1.55 0.667 2.543 0.667zM177.619 175.248c-0.741 0-1.404 0.17-1.987 0.511-0.587 0.341-1.043 0.82-1.37 1.436-0.326 0.614-0.489 1.328-0.489 2.143v0 0.223l7.537-1.423c-0.193-0.86-0.622-1.556-1.29-2.09-0.667-0.534-1.467-0.8-2.401-0.8zM219.619 185.341v-11.783h2.134v11.783zM220.686 171.291c-0.415 0-0.76-0.133-1.036-0.401-0.273-0.267-0.409-0.593-0.409-0.978v0c0-0.385 0.136-0.716 0.409-0.991 0.276-0.273 0.621-0.409 1.036-0.409v0c0.415 0 0.759 0.129 1.031 0.386 0.276 0.261 0.413 0.584 0.414 0.97v0c0 0.4-0.138 0.738-0.414 1.013-0.273 0.273-0.617 0.409-1.031 0.41zM242.819 185.474c-0.963 0-1.89-0.13-2.778-0.391-0.889-0.258-1.586-0.587-2.09-0.987v0l0.889-1.69c0.519 0.371 1.149 0.667 1.89 0.889 0.741 0.222 1.49 0.333 2.245 0.334v0c1.867 0 2.801-0.534 2.801-1.601v0c0-0.356-0.126-0.637-0.378-0.845-0.252-0.207-0.568-0.36-0.947-0.458-0.376-0.095-0.913-0.202-1.609-0.32v0c-0.949-0.148-1.724-0.319-2.326-0.511-0.599-0.193-1.113-0.519-1.543-0.978-0.43-0.459-0.645-1.104-0.644-1.934v0c0-1.067 0.445-1.924 1.334-2.57 0.889-0.643 2.082-0.965 3.579-0.965v0c0.786 0 1.571 0.096 2.356 0.289 0.786 0.193 1.43 0.452 1.934 0.778v0l-0.911 1.69c-0.963-0.622-2.097-0.934-3.401-0.934v0c-0.904 0-1.593 0.148-2.068 0.445-0.474 0.296-0.711 0.689-0.711 1.178v0c0 0.385 0.133 0.689 0.4 0.911 0.267 0.222 0.596 0.385 0.987 0.489 0.394 0.104 0.947 0.222 1.658 0.356v0c0.949 0.163 1.715 0.336 2.299 0.52 0.587 0.187 1.088 0.502 1.503 0.947 0.415 0.445 0.622 1.067 0.622 1.868v0c0 1.067-0.456 1.915-1.369 2.543-0.91 0.631-2.151 0.947-3.722 0.947zM287.371 185.474c-1.141 0-2.023-0.316-2.646-0.947-0.622-0.628-0.934-1.513-0.933-2.654v0-13.028h2.134v12.85c0 0.637 0.151 1.126 0.453 1.467 0.305 0.341 0.762 0.511 1.37 0.511v0c0.371 0 0.719-0.074 1.045-0.222v0l0.111 1.756c-0.489 0.178-1 0.267-1.534 0.267zM304.547 185.341v-11.783h2.134v11.783zM305.614 171.291c-0.415 0-0.76-0.133-1.036-0.401-0.273-0.267-0.409-0.593-0.409-0.978v0c0-0.385 0.136-0.716 0.409-0.991 0.276-0.273 0.621-0.409 1.036-0.409v0c0.415 0 0.759 0.129 1.032 0.386 0.276 0.261 0.413 0.584 0.413 0.97v0c0 0.4-0.138 0.738-0.413 1.013-0.273 0.273-0.617 0.409-1.032 0.41zM328.366 170.468c-1.275 0-1.912 0.689-1.912 2.067v0 1.023h3.446v1.756h-3.402v10.027h-2.134v-12.828c0-1.171 0.341-2.097 1.023-2.779 0.682-0.682 1.638-1.023 2.867-1.022v0c0.474 0 0.919 0.059 1.334 0.178 0.415 0.119 0.771 0.289 1.067 0.511v0l-0.644 1.623c-0.489-0.371-1.037-0.556-1.645-0.556zM350.655 183.607c1.408 0 2.542-0.474 3.401-1.423v0l1.156 1.378c-0.519 0.622-1.174 1.097-1.965 1.423-0.794 0.326-1.681 0.489-2.659 0.489v0c-1.245 0-2.349-0.256-3.312-0.769-0.963-0.51-1.707-1.224-2.232-2.143-0.528-0.919-0.791-1.956-0.792-3.113v0c0-1.141 0.256-2.171 0.769-3.09 0.51-0.919 1.214-1.635 2.112-2.147 0.895-0.51 1.906-0.765 3.033-0.765v0c1.067 0 2.038 0.24 2.912 0.72 0.874 0.483 1.571 1.162 2.09 2.037 0.519 0.874 0.786 1.882 0.8 3.023v0l-9.359 1.823c0.296 0.815 0.797 1.445 1.502 1.89 0.703 0.445 1.55 0.667 2.544 0.667zM350.166 175.248c-0.741 0-1.404 0.17-1.988 0.511-0.587 0.341-1.043 0.82-1.369 1.436-0.326 0.614-0.489 1.328-0.489 2.143v0 0.223l7.536-1.423c-0.193-0.86-0.622-1.556-1.289-2.09-0.667-0.534-1.467-0.8-2.401-0.8z" fill="#2ecc40" fill-rule="nonzero" stroke="none" stroke-width="1" stroke-linecap="butt" stroke-linejoin="miter" stroke-miterlimit="10" stroke-dasharray="" stroke-dashoffset="0" font-family="none" font-weight="none" font-size="none" text-anchor="none" style="mix-blend-mode: normal" data-fill-palette-color="secondary"></path></g></g><g transform="matrix(1,0,0,1,29.33176499999999,39.17511103078026)"><svg viewBox="0 0 316.416 41.27903793843951" height="41.27903793843951" width="316.416"><g><svg viewBox="0 0 316.416 41.27903793843951" height="41.27903793843951" width="316.416"><g><svg viewBox="0 0 316.416 41.27903793843951" height="41.27903793843951" width="316.416"><g><svg viewBox="0 0 316.416 41.27903793843951" height="41.27903793843951" width="316.416"><g><svg viewBox="0 0 316.416 41.27903793843951" height="41.27903793843951" width="316.416"><g><svg viewBox="0 0 316.416 41.27903793843951" height="41.27903793843951" width="316.416"><g transform="matrix(1,0,0,1,0,0)"><svg width="316.416" viewBox="0.35 -35.55 279.37 36.449999999999996" height="41.27903793843951" data-palette-color="#ff851b"><path d="M5.45 0.9L5.45 0.9Q3 0.9 1.68-0.05 0.35-1 0.35-2.6L0.35-2.6Q0.35-4 1.33-4.75 2.3-5.5 3.6-5.5L3.6-5.5Q4.9-5.5 5.9-4.93 6.9-4.35 7.75-2.95L7.75-2.95 8.65-1.4Q8.9-1.05 9.28-1.05 9.65-1.05 9.8-1.5L9.8-1.5Q10.1-2.5 10.23-4.42 10.35-6.35 10.35-9.1L10.35-9.1Q10.35-12.25 10.2-17.2 10.05-22.15 9.9-29.4L9.9-29.4Q9.9-31.55 8.3-32.1L8.3-32.1 7.15-32.5 7.15-33 20.25-33 20.25-32.5 19.15-32.1Q18.25-31.75 17.93-31.18 17.6-30.6 17.6-29.55L17.6-29.55 17.6-19.65Q17.6-14.75 17.15-11.55 16.7-8.35 15.7-6L15.7-6Q14.45-2.65 11.63-0.88 8.8 0.9 5.45 0.9ZM35.95-12L23.35-12 23.35-13.35 35.95-13.35 35.95-12ZM51.75 0L39.05 0 39.05-0.5 39.95-0.85Q40.95-1.25 41.32-1.85 41.7-2.45 41.7-3.45L41.7-3.45 41.7-29.55Q41.7-30.6 41.32-31.2 40.95-31.8 39.95-32.15L39.95-32.15 39.05-32.5 39.05-33 53.4-33Q59.5-33 62.2-30.78 64.9-28.55 64.9-25.15L64.9-25.15Q64.9-22.6 62.92-20.53 60.95-18.45 56.15-17.6L56.15-17.6Q61.65-17 64.2-14.73 66.75-12.45 66.75-9.2L66.75-9.2Q66.75-7.6 66.05-5.98 65.35-4.35 63.67-3 62-1.65 59.1-0.83 56.2 0 51.75 0L51.75 0ZM49.1-32L49.1-17.65 51.25-17.65Q54.6-17.65 56.07-19.2 57.55-20.75 57.55-24.6L57.55-24.6Q57.55-28.6 56.2-30.3 54.85-32 51.8-32L51.8-32 49.1-32ZM49.1-16.65L49.1-1 51.6-1Q55.35-1 57.17-3 59-5 59-9.25L59-9.25Q59-13.25 57.25-14.95 55.5-16.65 51.5-16.65L51.5-16.65 49.1-16.65ZM77.89 0.75L77.89 0.75Q75.94 0.75 74.32 0 72.69-0.75 71.77-2.43 70.84-4.1 70.89-6.85L70.89-6.85 71.04-19.7Q71.04-20.85 70.64-21.35 70.24-21.85 69.39-22.05L69.39-22.05 68.79-22.25 68.79-22.75 77.74-24.5 78.24-24 77.99-16.9 77.99-4.85Q77.99-3.25 78.92-2.5 79.84-1.75 81.24-1.75L81.24-1.75Q82.64-1.75 83.74-2.15 84.84-2.55 85.94-3.35L85.94-3.35 86.14-19.65Q86.14-20.8 85.79-21.28 85.44-21.75 84.49-21.95L84.49-21.95 83.99-22.1 83.99-22.6 92.74-24.5 93.24-24 93.09-16.9 93.09-3.35Q93.09-2.25 93.39-1.65 93.69-1.05 94.69-0.65L94.69-0.65 95.19-0.5 95.19 0 86.44 0.5 85.99-2.45Q84.34-1.1 82.42-0.18 80.49 0.75 77.89 0.75ZM109.59 0.75L109.59 0.75Q106.19 0.75 103.42-0.73 100.64-2.2 99.02-5.03 97.39-7.85 97.39-11.95L97.39-11.95Q97.39-16 99.17-18.88 100.94-21.75 103.92-23.28 106.89-24.8 110.44-24.8L110.44-24.8Q113.34-24.8 115.34-23.85 117.34-22.9 118.39-21.38 119.44-19.85 119.44-18.2L119.44-18.2Q119.44-16.8 118.59-16.03 117.74-15.25 116.39-15.25L116.39-15.25Q114.94-15.25 114.04-16.3 113.14-17.35 112.99-19.05L112.99-19.05Q112.94-20.15 113.04-20.93 113.14-21.7 113.04-22.5L113.04-22.5Q112.84-23.35 112.42-23.63 111.99-23.9 111.24-23.9L111.24-23.9Q108.19-23.9 106.52-21.25 104.84-18.6 104.84-12.8L104.84-12.8Q104.84-7.75 106.72-5.08 108.59-2.4 112.49-2.4L112.49-2.4Q114.84-2.4 116.29-3.25 117.74-4.1 119.09-5.8L119.09-5.8 119.59-5.4Q118.34-2.45 115.74-0.85 113.14 0.75 109.59 0.75ZM133.94 0L121.99 0 121.99-0.5 122.74-0.75Q124.44-1.3 124.44-3.2L124.44-3.2 124.44-29.95Q124.44-30.95 124.04-31.45 123.64-31.95 122.64-32.25L122.64-32.25 121.99-32.4 121.99-32.9 131.14-35.05 131.74-34.6 131.59-27.6 131.59-3.2Q131.59-1.2 133.24-0.7L133.24-0.7 133.94-0.5 133.94 0ZM149.34 0L140.54 0 131.64-12.5 140.89-21.05Q141.54-21.65 141.66-22.33 141.79-23 140.79-23.3L140.79-23.3 139.94-23.55 139.94-24.05 147.39-24.05 147.39-23.55 145.89-23.15Q144.79-22.8 144.11-22.33 143.44-21.85 142.49-21L142.49-21 136.89-15.75 145.84-3.3Q146.64-2.2 147.34-1.6 148.04-1 149.14-0.6L149.14-0.6 149.34-0.5 149.34 0ZM159.64 0.75L159.64 0.75Q157.19 0.75 155.24 0.18 153.29-0.4 151.64-1.25L151.64-1.25 151.69-7.2 152.19-7.2 153.89-4.2Q154.99-2.2 156.31-1.23 157.64-0.25 159.69-0.25L159.69-0.25Q162.09-0.25 163.56-1.33 165.04-2.4 165.04-4.2L165.04-4.2Q165.04-5.85 163.99-6.9 162.94-7.95 160.09-8.8L160.09-8.8 157.99-9.45Q154.94-10.35 153.19-12.25 151.44-14.15 151.44-16.9L151.44-16.9Q151.44-20.2 154.04-22.5 156.64-24.8 161.49-24.8L161.49-24.8Q163.44-24.8 165.16-24.38 166.89-23.95 168.49-23.1L168.49-23.1 168.19-17.7 167.69-17.7 165.94-20.8Q164.99-22.45 164.06-23.13 163.14-23.8 161.29-23.8L161.29-23.8Q159.59-23.8 158.09-22.85 156.59-21.9 156.59-20.15L156.59-20.15Q156.59-18.45 157.86-17.45 159.14-16.45 161.64-15.6L161.64-15.6 163.89-14.95Q167.49-13.85 169.04-11.93 170.59-10 170.59-7.3L170.59-7.3Q170.59-3.65 167.71-1.45 164.84 0.75 159.64 0.75ZM200.98 0.9L200.98 0.9Q196.13 0.9 192.21-1.07 188.28-3.05 185.98-6.95 183.68-10.85 183.68-16.5L183.68-16.5Q183.68-20.8 185.08-24.05 186.48-27.3 188.91-29.5 191.33-31.7 194.51-32.8 197.68-33.9 201.23-33.9L201.23-33.9Q204.08-33.9 206.48-33.25 208.88-32.6 210.98-31.45L210.98-31.45 211.18-25.3 210.68-25.3 208.18-29.3Q207.68-30.25 207.08-31.03 206.48-31.8 205.58-32.2L205.58-32.2Q204.83-32.55 204.11-32.73 203.38-32.9 202.28-32.9L202.28-32.9Q199.38-32.9 197.01-31.35 194.63-29.8 193.21-26.23 191.78-22.65 191.78-16.45L191.78-16.45Q191.78-10.3 193.13-6.73 194.48-3.15 196.81-1.63 199.13-0.1 202.03-0.1L202.03-0.1Q203.63-0.1 204.58-0.33 205.53-0.55 206.48-1L206.48-1Q207.43-1.4 207.93-2.18 208.43-2.95 208.83-3.85L208.83-3.85 211.03-8.75 211.53-8.75 211.38-1.6Q209.28-0.5 206.68 0.2 204.08 0.9 200.98 0.9ZM221.13 0.75L221.13 0.75Q218.23 0.75 216.25-0.9 214.28-2.55 214.28-5.65L214.28-5.65Q214.28-8 216.68-9.98 219.08-11.95 224.23-12.95L224.23-12.95Q225.03-13.1 226.03-13.28 227.03-13.45 228.13-13.65L228.13-13.65 228.13-17.6Q228.13-21 227.3-22.38 226.48-23.75 224.73-23.75L224.73-23.75Q223.53-23.75 222.83-22.98 222.13-22.2 221.93-20.3L221.93-20.3 221.83-19.75Q221.73-17.6 220.78-16.6 219.83-15.6 218.43-15.6L218.43-15.6Q217.13-15.6 216.28-16.4 215.43-17.2 215.43-18.55L215.43-18.55Q215.43-20.6 216.85-22 218.28-23.4 220.63-24.1 222.98-24.8 225.73-24.8L225.73-24.8Q230.18-24.8 232.6-22.63 235.03-20.45 235.03-15.55L235.03-15.55 235.03-4.5Q235.03-2.25 237.13-2.25L237.13-2.25 238.23-2.25 238.68-1.85Q237.73-0.65 236.6 0 235.48 0.65 233.43 0.65L233.43 0.65Q231.23 0.65 229.95-0.38 228.68-1.4 228.28-3.1L228.28-3.1Q226.78-1.5 225.2-0.38 223.63 0.75 221.13 0.75ZM224.18-2.3L224.18-2.3Q225.18-2.3 226.05-2.78 226.93-3.25 228.13-4.25L228.13-4.25 228.13-12.65Q227.63-12.55 227.13-12.45 226.63-12.35 225.98-12.25L225.98-12.25Q223.68-11.65 222.3-10.23 220.93-8.8 220.93-6.4L220.93-6.4Q220.93-4.35 221.88-3.33 222.83-2.3 224.18-2.3ZM252.93 0L239.83 0 239.83-0.5 240.48-0.65Q241.43-0.9 241.98-1.53 242.53-2.15 242.53-3.15L242.53-3.15Q242.53-5 242.55-6.83 242.58-8.65 242.58-10.5L242.58-10.5 242.58-23.05 239.78-23.05 239.78-23.6 240.88-23.8Q241.88-23.9 242.33-24.5 242.78-25.1 242.98-26.15L242.98-26.15Q243.48-28.1 244.45-29.58 245.43-31.05 246.68-32.3L246.68-32.3Q248.58-34.1 250.7-34.83 252.83-35.55 254.88-35.55L254.88-35.55Q256.88-35.55 258.53-34.73 260.18-33.9 260.18-32L260.18-32Q260.18-30.65 259.38-29.88 258.58-29.1 257.13-29.1L257.13-29.1Q255.93-29.1 254.93-29.75 253.93-30.4 252.98-32.05L252.98-32.05 252.28-32.9Q251.73-33.6 251.18-33.58 250.63-33.55 250.38-32.75L250.38-32.75Q250.03-31 249.85-28.65 249.68-26.3 249.68-24.05L249.68-24.05 255.28-24.05 255.28-23.05 249.68-23.05 249.68-3.25Q249.68-1.35 251.68-0.8L251.68-0.8 252.93-0.5 252.93 0ZM269.42-24.8L269.42-24.8Q272.67-24.8 274.97-23.48 277.27-22.15 278.5-19.88 279.72-17.6 279.72-14.7L279.72-14.7Q279.72-14.15 279.67-13.58 279.62-13 279.47-12.55L279.47-12.55 264.57-12.55Q264.62-7.15 266.5-4.78 268.37-2.4 272.07-2.4L272.07-2.4Q274.57-2.4 276.12-3.2 277.67-4 279.02-5.55L279.02-5.55 279.52-5.1Q277.97-2.35 275.4-0.8 272.82 0.75 269.22 0.75L269.22 0.75Q265.67 0.75 262.92-0.78 260.17-2.3 258.62-5.15 257.07-8 257.07-11.95L257.07-11.95Q257.07-16.05 258.87-18.93 260.67-21.8 263.5-23.3 266.32-24.8 269.42-24.8ZM269.27-23.8L269.27-23.8Q267.82-23.8 266.8-22.93 265.77-22.05 265.2-19.83 264.62-17.6 264.57-13.55L264.57-13.55 273.12-13.55Q273.62-19 272.72-21.4 271.82-23.8 269.27-23.8Z" opacity="1" transform="matrix(1,0,0,1,0,0)" fill="#ff851b" class="undefined-text-0" data-fill-palette-color="primary" id="text-0"></path></svg></g></svg></g></svg></g></svg></g><g></g></svg></g></svg></g></svg></g></svg></g><defs></defs></svg><rect width="375.07953" height="119.62926000000002" fill="none" stroke="none" visibility="hidden"></rect></g></svg></g></svg>